<?xml version="1.0" encoding="UTF-8" standalone="no"?>
<!-- Created with Inkscape (http://www.inkscape.org/) -->

<svg
   xmlns:dc="http://purl.org/dc/elements/1.1/"
   xmlns:cc="http://creativecommons.org/ns#"
   xmlns:rdf="http://www.w3.org/1999/02/22-rdf-syntax-ns#"
   xmlns:svg="http://www.w3.org/2000/svg"
   xmlns="http://www.w3.org/2000/svg"
   xmlns:sodipodi="http://sodipodi.sourceforge.net/DTD/sodipodi-0.dtd"
   xmlns:inkscape="http://www.inkscape.org/namespaces/inkscape"
   width="744.09448819"
   height="1052.3622047"
   id="svg3057"
   version="1.1"
   inkscape:version="0.48.5 r10040"
   sodipodi:docname="지도2.svg">
  <defs
     id="defs3059" />
  <sodipodi:namedview
     id="base"
     pagecolor="#ffffff"
     bordercolor="#666666"
     borderopacity="1.0"
     inkscape:pageopacity="0.0"
     inkscape:pageshadow="2"
     inkscape:zoom="0.98994949"
     inkscape:cx="-57.076168"
     inkscape:cy="801.80052"
     inkscape:document-units="px"
     inkscape:current-layer="layer1"
     showgrid="false"
     inkscape:window-width="1920"
     inkscape:window-height="1045"
     inkscape:window-x="0"
     inkscape:window-y="0"
     inkscape:window-maximized="1" />
  <metadata
     id="metadata3062">
    <rdf:RDF>
      <cc:Work
         rdf:about="">
        <dc:format>image/svg+xml</dc:format>
        <dc:type
           rdf:resource="http://purl.org/dc/dcmitype/StillImage" />
        <dc:title />
      </cc:Work>
    </rdf:RDF>
  </metadata>
  <g
     inkscape:label="Layer 1"
     inkscape:groupmode="layer"
     id="layer1">
    <path
       style="fill:#ff0000;stroke:#000000;stroke-width:1.26693499px;stroke-linecap:butt;stroke-linejoin:miter;stroke-opacity:1"
       d="m 45.977861,65.095227 1.919698,5.11919 7.038888,7.678791 19.356942,-3.039529 2.399612,10.718308 8.958586,5.11919 12.797982,7.038888 8.318681,12.797985 -1.27981,13.43787 1.9197,8.95858 -0.63989,5.43913 21.75656,11.9981 -7.03889,4.31933 2.5596,5.11919 -5.75909,12.79798 -0.95985,13.75782 6.71894,5.75908 6.39898,-17.5972 5.7591,0 7.03887,5.75908 17.27727,-0.63989 -5.11919,7.67878 16.63738,1.27979 4.47928,2.5596 7.03889,-1.9197 7.67879,3.1995 3.19949,-3.1995 7.03889,4.47929 13.43787,-1.9197 8.95859,2.5596 10.55832,-9.27852 -6.71894,-7.99874 1.27981,-7.67878 L 217.47073,157.24066 205.18468,123.80594 178.43691,84.388175 158.60005,45.25837 150.60131,32.780353 124.7494,2.8970575 121.93385,14.287271 c -2.4505,5.653786 -6.77147,8.273314 -11.90211,9.598477 l -8.54266,3.455451 -9.406518,4.959214 c -9.015497,3.062372 -1.441481,11.301579 -13.181901,11.806136 l -9.822445,8.702627 -16.73336,0.703884 c -0.842816,1.315205 -3.446165,5.577719 -6.366995,11.582167 z"
       id="path3023"
       inkscape:connector-curvature="0"
       sodipodi:nodetypes="ccccccccccccccccccccccccccccccccccccccccccccccc" />
    <path
       style="fill:#800000;fill-opacity:1;stroke:#000000;stroke-width:1.26693499px;stroke-linecap:butt;stroke-linejoin:miter;stroke-opacity:1"
       d="m 72.213715,77.893208 -19.484915,3.16749 -6.047042,-8.670624 -6.050324,5.422443 -4.252049,6.479676 -3.199492,4.799238 -3.199505,0 -0.639891,7.998743 -1.599746,2.87954 -4.479299,-1.279794 -4.159335,-1.919698 0.319952,7.998728 0.959842,2.87954 -1.599746,2.5596 4.159348,2.55959 0.319939,2.5596 -1.599746,3.51945 12.797981,8.31868 6.398984,-2.23965 3.199493,6.07905 0.639903,1.27979 6.718936,-0.31995 8.638634,0.95985 10.23838,-6.07904 4.159348,4.15935 0,5.75908 8.638633,5.75909 0,4.79924 -9.598489,7.35884 -5.11919,6.39898 -16.157436,-0.95985 1.759709,8.31869 -6.079033,0 -4.159347,2.87954 2.879553,3.19951 1.919698,1.27979 2.87954,-0.95985 -0.319952,2.5596 -4.159334,4.47928 -3.199505,0.31996 -4.159335,-0.95985 0.639904,4.79924 0.959842,2.87954 7.35884,-0.6399 0,11.51819 5.11919,-2.55961 1.599746,1.59975 0.319952,1.9197 -4.799251,5.11919 17.277268,0.6399 c 0,0 0,-3.19949 1.279807,-3.19949 1.279794,0 3.519431,-0.6399 3.519431,-0.6399 l 10.878283,4.15934 7.038888,-4.15934 1.279794,-5.43915 1.599747,-1.91969 7.998742,0.31995 6.07903,-7.35884 5.43915,-1.2798 1.91969,-5.11919 0.95985,-9.27852 5.43914,-12.15808 -2.87954,-5.11919 0.31995,-3.19949 4.47929,-1.9197 -19.51692,-10.23838 0.6399,-7.67879 -3.19949,-11.83813 1.9197,-10.55833 -7.038891,-9.59847 -7.35884,-4.799242 -14.077775,-7.038888 z"
       id="path3025"
       inkscape:connector-curvature="0"
       sodipodi:nodetypes="ccccccccccccccccccccccccccccccccccccccccccccccccccscccccccccccccccccccccc" />
    <path
       style="fill:#ffff00;stroke:#000000;stroke-width:1.26693499px;stroke-linecap:butt;stroke-linejoin:miter;stroke-opacity:1"
       d="m 69.81409,129.72501 -11.326209,6.55895 -5.15118,6.20703 2.495608,4.09535 9.534484,3.58343 9.246535,1.3118 5.919069,-4.79924 0.319952,-2.23965 -8.79861,-6.07903 0.159976,-6.55898 z"
       id="path3027"
       inkscape:connector-curvature="0"
       sodipodi:nodetypes="ccccccccccc" />
    <path
       style="fill:#00ffff;stroke:#000000;stroke-width:1.26693499px;stroke-linecap:butt;stroke-linejoin:miter;stroke-opacity:1"
       d="m 40.724427,134.52425 7.198864,-0.47993 6.398984,0.63991 -0.479928,2.55958 -3.199492,4.95922 1.919698,5.43914 7.038888,3.35947 6.55896,1.75972 2.079674,2.07967 -3.999372,3.99938 -15.677521,-1.59975 -1.919698,-6.399 -5.919057,-9.91843 -0.159976,-7.35884 z"
       id="path3029"
       inkscape:connector-curvature="0"
       sodipodi:nodetypes="ccccccccccccccc" />
    <path
       style="fill:#00ffff;stroke:#000000;stroke-width:1.26693499px;stroke-linecap:butt;stroke-linejoin:miter;stroke-opacity:1"
       d="m 28.886301,135.16414 5.599105,-0.31994 2.719577,2.71957 0.159976,5.75909 -6.239021,0.15998 -1.919698,-1.9197 z"
       id="path3031"
       inkscape:connector-curvature="0" />
    <path
       style="fill:#ff00ff;stroke:#000000;stroke-width:1.26693499px;stroke-linecap:butt;stroke-linejoin:miter;stroke-opacity:1"
       d="m 87.571285,207.79266 6.079033,-3.67942 0.959855,-5.75908 8.318687,-0.15998 6.239,-7.99874 5.7591,-1.11982 8.63863,5.75909 2.07967,-0.15997 5.59911,-16.79734 3.8394,-0.31996 5.91906,4.63927 2.71957,0.79988 10.71831,-0.63991 -5.27917,7.19887 22.23648,1.75972 3.1995,2.23963 5.27916,0 -1.27979,2.71958 -11.3582,9.59848 -2.23965,9.59849 -3.99937,1.27979 -6.07904,-1.43977 -9.43851,1.11982 -8.63863,3.03952 0.6399,5.43914 -9.43851,0.79988 0.79988,10.23838 -5.27917,-2.07968 -2.39962,1.11982 0,4.31933 3.99937,3.35946 2.23965,3.99936 0,10.87829 -5.43915,7.19886 7.03889,0.95984 4.63927,3.51945 3.99937,4.4793 0.47991,2.07967 -4.79924,1.43977 -5.75908,11.9981 -11.83812,0.47992 -6.55898,-4.15934 -6.07903,-8.95858 -0.15997,-6.07904 -3.039521,-2.07967 0.159971,-7.67879 5.91906,-7.19885 -14.077774,-5.91907 -2.239637,-0.95986 -0.319952,-2.71956 3.67942,-4.95922 3.67942,-5.43914 -0.319952,-1.75972 -3.039517,-3.35947 0,-8.31868 -4.479299,-4.63926 -1.919698,-3.99937 -1.43977,-1.2798 0,-1.43977 z"
       id="path3033"
       inkscape:connector-curvature="0"
       sodipodi:nodetypes="cccccccccccccccccccccccccccccccccccccccccccccccccccccccccccc" />
    <path
       style="fill:#501616;stroke:#000000;stroke-width:1.26693499px;stroke-linecap:butt;stroke-linejoin:miter;stroke-opacity:1"
       d="m 85.17166,212.91185 1.599746,2.5596 2.879553,3.6794 1.599746,2.07968 0,7.03889 3.039516,3.99937 0.159976,1.43977 -5.439142,7.51881 -2.239649,1.75973 -5.439129,-8.47866 -0.959856,-2.07968 -0.479927,-13.11793 3.679419,-4.63926 z"
       id="path3035"
       inkscape:connector-curvature="0" />
    <path
       style="fill:#ffd42a;stroke:#000000;stroke-width:1.26693499px;stroke-linecap:butt;stroke-linejoin:miter;stroke-opacity:1"
       d="m 87.091357,248.42622 15.357573,6.23903 -1.2798,2.55958 -3.359465,2.39963 0.159976,7.99873 -8.958573,6.07905 -3.839408,-1.9197 -2.239637,0.47993 -1.279807,2.23963 -2.879541,-1.11982 -0.959842,-1.91969 0.159975,-9.91843 z"
       id="path3037"
       inkscape:connector-curvature="0"
       sodipodi:nodetypes="ccccccccccccc" />
    <path
       style="fill:#d38d5f;stroke:#000000;stroke-width:1.26693499px;stroke-linecap:butt;stroke-linejoin:miter;stroke-opacity:1"
       d="m 82.932023,209.3924 c -1.759722,-0.63989 -10.398356,-3.99937 -10.398356,-3.99937 l -3.519444,2.87955 -3.359468,1.43977 -4.639275,0.15998 0,-1.43977 -2.399613,0.15998 -0.959855,3.99935 -11.838126,9.59849 0,-6.39899 -1.759722,-1.75973 0,-5.27915 -10.398356,-0.47993 -6.079033,-11.19823 -1.599746,0.47993 -0.319952,10.39835 2.879541,4.95922 -0.479915,2.07967 -7.678792,-0.31995 -5.439141,-3.51945 -1.919698,0.15998 -9.5984767,11.51817 10.0784037,10.23838 1.759722,-0.63989 2.23965,-6.07904 c 0,0 3.199492,5.27916 3.999359,5.43914 0.799879,0.15998 0.479927,14.5577 0.479927,14.5577 l 3.999372,5.59911 -0.799879,2.71958 -3.519444,4.63926 3.519444,3.67942 -0.479928,2.71956 0.159976,4.31933 1.439783,2.39961 0.959842,2.71958 -1.279794,4.63926 -1.43977,2.5596 0.799867,3.03952 6.718936,4.47928 12.957957,-4.63926 3.999359,-7.03889 12.318053,-0.6399 6.239022,7.03889 6.079032,-1.9197 1.759722,-0.15996 3.839396,0.63989 3.199492,-2.39962 2.079674,-0.95985 11.518174,14.07777 3.359468,0 1.759719,-5.91907 5.91906,-0.47991 -0.95984,-3.19949 -4.79924,-6.399 c 0,0 -0.15998,-7.5188 -0.79988,-7.19886 -0.639891,0.31995 -3.999359,0.15997 -3.999359,0.15997 l -5.759094,4.31933 -3.039516,0.79986 -2.879541,-2.23963 -2.559601,3.83939 -6.55896,-3.35948 0,-12.31804 7.358839,-11.51819 1.439771,-3.67942 -0.159976,-4.31931 -6.718936,-11.03826 -0.319952,-12.47801 5.759093,-5.91907 z"
       id="path3039"
       inkscape:connector-curvature="0"
       sodipodi:nodetypes="cccccccccccccccccccccccccsccccccccccccccccccccccccccccccccccccccccccc" />
    <path
       style="fill:#0000ff;stroke:#000000;stroke-width:1.26693499px;stroke-linecap:butt;stroke-linejoin:miter;stroke-opacity:1"
       d="m 184.67592,193.39493 7.19886,2.23965 3.03952,-2.55959 6.87891,3.67942 13.59785,-2.07967 8.47867,2.55958 12.31804,-10.7183 5.27917,10.87828 0.79988,10.0784 0.63989,19.83687 -1.2798,16.47739 -1.75972,13.43787 -0.63989,6.399 -0.47993,17.59721 1.2798,0.47993 0.95985,10.0784 -1.75972,4.15935 -1.27981,3.67942 9.11856,0.31994 3.03952,-2.55959 -0.15998,4.31931 -6.239,24.15618 -2.07968,-0.31994 -4.79924,-3.99937 -1.91969,-0.15998 -1.11982,3.8394 -1.9197,0.47991 -9.11856,-7.03887 -1.75972,0.47991 -10.55833,11.03826 -7.03889,0.47993 -8.15871,5.91906 -3.99936,-0.15998 -5.75909,-4.95921 -8.63864,0 -2.39962,-6.07904 1.11983,-5.27916 2.39961,-3.03953 8.47866,-0.31994 7.67879,-8.3187 -1.27979,-4.63926 -6.71894,-8.79861 -4.4793,-0.47991 -3.67942,1.43977 -10.71829,0.31995 -2.39963,5.27917 0.63991,3.83938 4.95921,2.23965 -0.47993,2.07967 -7.19886,4.31931 0.47993,5.59912 -2.5596,0.47993 -3.1995,1.9197 0.79988,3.19949 0.79987,1.9197 -8.79861,-3.51945 -5.75908,-16.15745 -10.39836,-0.31995 -4.31932,-5.43914 0,-11.19822 5.27917,-11.67815 6.23902,-2.39963 -1.11983,-3.99937 -5.91906,-7.19885 -3.35947,-0.95986 -4.15935,-0.95984 3.35947,-6.07905 0,-11.9981 c 0,0 -6.71893,-7.19886 -6.07903,-7.19886 0.63989,0 1.11982,-1.2798 1.11982,-1.2798 l 5.91907,2.39963 -1.27981,-11.19824 9.75846,-0.79986 -0.15997,-5.7591 6.55896,-2.55958 9.11855,-1.11982 6.87891,1.91969 5.43914,-2.23964 1.11983,-6.55898 1.11982,-3.99936 z"
       id="path3060"
       inkscape:connector-curvature="0"
       sodipodi:nodetypes="ccccccccccccccccccccccccccccccccccccccccccccccccccccccccccccccccccccscccccccccccc" />
    <path
       style="fill:#784421;stroke:#000000;stroke-width:1.26693499px;stroke-linecap:butt;stroke-linejoin:miter;stroke-opacity:1"
       d="m 168.83843,298.17837 9.27853,-2e-5 4.15935,-1.75972 3.03951,0.15998 5.59912,8.31869 0.47992,1.91969 -6.23901,8.15872 -8.63864,0.15997 -3.35947,5.27917 -0.79986,3.03952 0.79986,4.63926 0.47993,2.07967 -3.67942,0 -1.59974,-2.23965 -2.39963,0 -1.59974,1.75972 -2.39962,-1.59974 -2.07967,-4.31933 0.79987,-1.43977 4.63927,-1.27979 -0.6399,-6.07903 6.07903,-3.99937 1.9197,-1.59975 -0.31994,-3.51944 -4.95922,-1.9197 -0.47992,-2.23965 z"
       id="path3062"
       inkscape:connector-curvature="0"
       sodipodi:nodetypes="ccccccccccccccccccccccccccc" />
    <path
       style="fill:#ffccaa;stroke:#000000;stroke-width:1.26693499px;stroke-linecap:butt;stroke-linejoin:miter;stroke-opacity:1"
       d="m 222.7499,321.37469 -11.19822,11.03825 -2.55961,4.15935 2.39963,2.23965 11.9981,5.75908 1.11982,0.79988 c 0,0 -0.15998,6.239 0.47993,6.07903 0.6399,-0.15997 3.19949,0.47993 3.19949,0.47993 l 2.5596,2.23965 1.91969,-0.79988 3.51944,-5.75908 5.91907,-1.11984 0.15998,-18.07713 -4.63927,-4.15935 -1.43978,-0.15997 -1.43977,3.51944 -2.23964,0.6399 -4.63927,-3.19949 z"
       id="path3064"
       inkscape:connector-curvature="0"
       sodipodi:nodetypes="ccccccccccccccccccc" />
    <path
       style="fill:#ac9d93;stroke:#000000;stroke-width:1.26693499px;stroke-linecap:butt;stroke-linejoin:miter;stroke-opacity:1"
       d="m 224.98955,354.00953 2.39962,0.15998 6.39899,5.43914 -0.63991,3.19949 -7.99873,8.15871 -0.15997,6.87891 -8.15871,7.35884 -0.47993,0.79986 -7.51881,0.47993 -3.35947,-4.31931 -8.95858,0.63989 -1.11982,-1.9197 6.55896,-8.47865 1.59974,-3.35947 1.75973,-1.59975 5.59911,-2.23965 4.31933,-3.19949 z"
       id="path3066"
       inkscape:connector-curvature="0" />
    <path
       style="fill:#d40000;stroke:#000000;stroke-width:1.26693499px;stroke-linecap:butt;stroke-linejoin:miter;stroke-opacity:1"
       d="m 128.36483,304.41738 5.43914,5.43914 8.47866,0.47991 5.91907,14.55771 0.79987,0.95984 9.91842,3.51944 1.9197,0.15998 3.03952,3.03951 3.03953,-1.91968 0.95984,0 3.35947,2.55959 12.638,0.31995 5.91906,4.79924 4.4793,0.6399 1.9197,0.15998 4.79923,-4.63928 4.79924,-1.75972 2.71957,0.31995 -0.95985,1.9197 -1.11981,2.71956 1.43977,1.43979 1.59974,1.11982 11.51818,5.75909 1.75972,1.91968 -0.63989,5.27917 -12.79798,10.07842 -4.63927,1.27979 -2.87955,2.07967 -8.31868,14.5577 -2.07967,1.11981 -5.11919,-0.47991 -7.19886,-3.35947 -1.43978,0.31995 0.79988,6.71894 -13.9178,-0.79988 -2.87954,5.59912 0.47993,2.39961 4.63926,0 -0.79988,2.5596 -4.79924,6.39899 -0.15997,2.71957 -1.43977,0.95985 -4.95922,-2.71957 -5.75909,0 -0.31995,1.75972 -7.03888,-0.47992 -5.27916,-4.4793 0.15997,-11.03825 -3.51944,-0.31995 -3.03953,0.31995 -1.11982,4.31931 -0.79988,1.27981 -6.07903,0 -4.47929,3.99936 0.15998,-14.39772 -10.23839,-13.27791 -0.79987,-7.5188 1.75972,-5.59912 1.11982,-6.39898 1.75972,-1.9197 0.31995,-12.95796 -4.31931,-4.63926 -0.47993,-3.8394 6.07904,-9.91842 4.79925,-7.19887 6.23901,-5.5991 1.75972,-0.79988 z"
       id="path3068"
       inkscape:connector-curvature="0" />
    <path
       style="fill:#ffb380;stroke:#000000;stroke-width:1.26693499px;stroke-linecap:butt;stroke-linejoin:miter;stroke-opacity:1"
       d="m 33.019917,291.93935 12.318054,-4.63927 4.479286,-7.03888 10.558332,-0.63991 6.718936,7.35884 2.719565,-0.95984 5.279165,-1.59976 4.319324,0.6399 4.31931,-2.39962 12.318054,13.59786 3.67942,0.15996 1.759717,-1.91968 0.95985,-4.79925 7.67879,-0.79987 c 0,0 4.31931,1.11982 4.15933,2.07967 -0.15997,0.95985 4.15935,1.75973 4.15935,1.75973 l 5.43914,-1.27981 2.55959,0.15997 0.31995,1.27981 0.47993,7.5188 -3.03952,1.9197 c 0,0 -6.71893,3.8394 -7.35884,5.11919 -0.6399,1.2798 -7.51881,11.3582 -7.51881,11.3582 l -5.91906,8.95859 0.15998,2.07967 2.23964,3.99937 1.75972,1.59975 0.79988,12.95794 -2.39963,6.87891 -1.9197,1.11983 -8.63863,-4.63927 -2.879541,-0.31995 -4.479286,4.79925 -4.319324,0.47991 -4.639262,-3.03951 -6.55896,0.6399 -3.359468,1.43977 -6.718936,-0.31995 -0.79988,-13.43787 -11.198222,-0.31995 -8.638634,-3.51945 -2.079674,0.47993 -5.599118,9.27852 -5.279166,3.03953 -5.599117,0.31995 -1.919698,-2.87955 -0.319939,-6.71893 7.838754,-3.99938 0,-1.43977 -14.55769,-4.95921 0.639891,-2.55959 15.197594,-11.51819 6.878912,0.31996 0.159976,-8.95859 2.079673,-3.51944 -1.599746,-1.91969 -8.478658,0.47992 -0.479927,-3.35947 z"
       id="path3070"
       inkscape:connector-curvature="0"
       sodipodi:nodetypes="ccccccccccccccsccccccsccccccccccccccccccccccccccccccccccccc" />
    <path
       style="fill:#e5ff80;stroke:#000000;stroke-width:1.26693499px;stroke-linecap:butt;stroke-linejoin:miter;stroke-opacity:1"
       d="m 18.142262,345.69085 0.159976,2.71956 1.599746,1.75972 0,2.39963 2.879553,1.11982 6.55896,-0.15998 5.919057,-4.31931 5.759093,-8.79861 2.399626,0.15998 6.55896,2.87954 9.758452,0.47993 1.119819,13.43787 2.239649,0.95984 6.558961,-0.31994 3.359468,-1.75972 6.079045,-0.31995 3.67942,2.87954 5.759081,-0.47993 4.959214,-4.95921 1.279807,0 10.078401,5.27916 0.95985,0.47993 -1.2798,5.11919 -1.11982,1.59975 1.43977,5.75909 7.99873,10.55833 0.47993,13.11792 -5.43914,0.15998 0,3.67942 -1.43977,1.59974 -4.47929,0.15998 -1.75972,-0.6399 -0.479927,2.23964 1.919697,1.75973 0.79987,4.15933 2.87955,-0.31995 2.71957,-0.31994 1.27979,-0.15998 0,10.23838 -3.35947,0.15998 -2.55959,-1.9197 -2.5596,0.95985 0.31995,6.87891 -2.399622,1.59974 -1.599746,-1.11981 -0.31994,-2.39963 -0.159975,-14.71767 -2.079674,0.63991 -9.918428,7.03887 -0.319952,3.8394 4.159335,7.35884 0.319951,3.03951 -0.959842,1.59975 -9.918429,8.47866 -2.239649,-0.15998 -9.598489,-5.91906 0,-1.75972 4.799251,-1.75972 0.63989,-6.07904 2.23965,0.31995 1.919698,1.75972 1.919698,-0.63989 0.479915,-7.51882 -3.199492,0.31995 -1.599747,2.07968 -4.159334,-0.6399 -1.439783,2.07967 -12.318041,3.67942 -5.599118,0.31994 0.479928,16.79735 -9.278538,0 -6.878912,-12.31805 c 0,0 -11.518174,21.91653 -12.797981,22.23648 -1.279794,0.31995 -9.918428,-0.31995 -9.918428,-0.31995 l -1.279795,-1.2798 0,-13.75782 4.159348,-3.19949 -2.399626,-2.23965 -0.159976,-3.67942 9.438514,-0.31995 -0.159976,-2.07968 -8.79861,-9.4385 1.119819,-1.59974 10.878283,-4.63927 -0.479928,-2.5596 -4.639262,-6.87891 -8.638634,6.55896 -1.119831,-0.15998 0,-16.95731 -3.6794071,0.15997 0,-2.71956 2.3996128,-3.19949 -0.4799276,-3.19951 -6.0790326,-11.67815 0.3199517,-2.87954 8.6386338,-12.15808 0,-5.27916 5.11919,-3.67942 z"
       id="path3074"
       inkscape:connector-curvature="0" />
    <path
       style="fill:#aad400;stroke:#000000;stroke-width:1.26693499px;stroke-linecap:butt;stroke-linejoin:miter;stroke-opacity:1"
       d="m 30.140364,361.52834 11.038259,-0.15997 3.999372,1.27979 2.87954,-0.95985 1.759722,-2.71957 2.23965,-0.47992 7.518802,8.31868 -0.159975,6.07904 -1.919698,3.03952 -1.43977,3.99937 -7.838755,0 -2.23965,2.07967 -3.999371,0.15998 -2.719565,-2.71958 0.159976,-4.31931 -5.599117,-3.51944 -1.759722,0.31995 -0.959843,1.59975 -1.919698,-0.15998 0,-10.39835 z"
       id="path3076"
       inkscape:connector-curvature="0" />
    <path
       style="fill:none;stroke:#000000;stroke-width:1.26693499px;stroke-linecap:butt;stroke-linejoin:miter;stroke-opacity:1"
       d="m 50.7771,481.34939 8.318695,9.59848 6.718936,-0.6399 9.278524,0 c 0,0 7.35884,2.87954 17.277268,-1.2798 9.918427,-4.15934 11.838127,-6.39899 11.838127,-6.39899 l 6.71894,-9.59847 -0.6399,-1.9197 -8.63863,-6.71894 -9.598489,0.31994 -7.358826,3.51945 -19.83687,-0.95985 z"
       id="path3078"
       inkscape:connector-curvature="0" />
    <path
       style="fill:#0000ff;stroke:#000000;stroke-width:1.26693499px;stroke-linecap:butt;stroke-linejoin:miter;stroke-opacity:1"
       d="m 277.30127,185.3962 6.39899,-4.47929 6.71894,-0.31995 -1.27979,4.15935 -2.55961,5.11919 -5.11919,-0.31995 -1.59974,-2.23965 z"
       id="path3080"
       inkscape:connector-curvature="0" />
    <path
       style="fill:#0000ff;stroke:#000000;stroke-width:1.26693499px;stroke-linecap:butt;stroke-linejoin:miter;stroke-opacity:1"
       d="m 320.81439,191.15529 -1.9197,2.87954 1.9197,1.59975 2.87954,-1.2798 0.31995,-3.19949 z"
       id="path3082"
       inkscape:connector-curvature="0" />
    <path
       style="fill:#0000ff;stroke:#000000;stroke-width:1.26693499px;stroke-linecap:butt;stroke-linejoin:miter;stroke-opacity:1"
       d="m 329.45302,193.07499 -3.19949,1.27979 -1.59975,1.59975 3.8394,1.27979 2.55959,-2.23963 0,-2.23965 z"
       id="path3084"
       inkscape:connector-curvature="0" />
  </g>
</svg>
